Patient4_TMGait_0pt7_01_right_47_GRF.mot
version=1
nRows=65
nColumns=19
inDegrees=no
endheader
time	F1x	F1y	F1z	M1x	M1y	M1z	F2x	F2y	F2z	M2x	M2y	M2z	EC1x	EC1y	EC1z	EC2x	EC2y	EC2z
53.94	44.5316	749.8857	56.218	-256.2846	-52.789	805.7108	-15.7635	0.94015	3.5313	0.71875	-0.69715	3.85	-0.0592	0.0182	-0.0073	-0.0462	0.0165	0.9585
53.9523	35.5811	746.5432	61.0696	-255.3163	-57.8181	796.3952	-10.6576	1.6821	2.291	0.88403	-0.32461	3.8508	-0.0592	0.0182	-0.0073	-0.0462	0.0165	0.9585
53.9646	28.7303	742.8662	64.7875	-254.0991	-61.263	786.3707	-6.3757	2.3728	1.2518	1.0472	-0.00077432	3.954	-0.0592	0.0182	-0.0073	-0.0462	0.0165	0.9585
53.9769	24.3572	739.2178	67.1285	-252.7377	-62.8884	776.346	-3.1385	2.9568	0.46479	1.1947	0.25651	4.1127	-0.0592	0.0182	-0.0073	-0.0462	0.0165	0.9585
53.9891	22.2931	735.8845	68.115	-251.3334	-62.7974	766.8104	-0.92391	3.4231	-0.071634	1.3202	0.44185	4.296	-0.0592	0.0182	-0.0073	-0.0462	0.0165	0.9585
54.0014	22.062	733.0388	68.009	-249.9497	-61.3667	758.0948	0.41507	3.7778	-0.39329	1.4194	0.5628	4.491	-0.0592	0.0182	-0.0073	-0.0462	0.0165	0.9585
54.0137	23.1432	730.7613	67.1203	-248.6199	-59.0193	750.3359	1.0946	4.0306	-0.55668	1.4873	0.63371	4.6701	-0.0592	0.0182	-0.0073	-0.0462	0.0165	0.9585
54.026	25.026	729.0498	65.8542	-247.3439	-56.2606	743.5552	1.302	4.1716	-0.61635	1.5149	0.67491	4.7885	-0.0592	0.0182	-0.0073	-0.0462	0.0165	0.9585
54.0383	27.3557	727.84	64.5708	-246.1037	-53.5097	737.6618	1.23	4.149	-0.62815	1.4829	0.71173	4.7564	-0.0592	0.0182	-0.0073	-0.0462	0.0165	0.9585
54.0506	29.9145	727.0767	63.6326	-244.8861	-51.1432	732.5403	0.99065	3.9137	-0.62079	1.3701	0.76145	4.508	-0.0592	0.0182	-0.0073	-0.0462	0.0165	0.9585
54.0629	32.6173	726.7836	63.2579	-243.7145	-49.3612	728.1179	0.70571	3.3737	-0.62272	1.1428	0.83225	3.8913	-0.0592	0.0182	-0.0073	-0.0462	0.0165	0.9585
54.0751	35.4783	727.1076	63.578	-242.6607	-48.2506	724.4381	0.42698	2.4617	-0.6392	0.77177	0.91962	2.8011	-0.0592	0.0182	-0.0073	-0.0462	0.0165	0.9585
54.0874	38.5325	728.3687	64.5668	-241.8648	-47.7492	721.7193	0.22725	1.0879	-0.67653	0.22456	1.0057	1.0996	-0.0592	0.0182	-0.0073	-0.0462	0.0165	0.9585
54.0997	41.803	730.9588	66.1741	-241.4959	-47.7749	720.2535	0.134	-0.76374	-0.71901	-0.50502	1.0569	-1.2219	-0.0592	0.0182	-0.0073	-0.0462	0.0165	0.9585
54.112	45.2762	735.2175	68.276	-241.7063	-48.1927	720.3088	0.20547	-3.0274	-0.7335	-1.3877	1.0097	-4.0784	-0.0592	0.0182	-0.0073	-0.0462	0.0165	0.9585
54.1243	48.9059	741.2655	70.7438	-242.5751	-48.8766	721.9541	0.4684	-5.448	-0.66751	-2.3223	0.78249	-7.1431	-0.0592	0.0182	-0.0073	-0.0462	0.0165	0.9585
54.1366	52.601	748.9982	73.3772	-244.1028	-49.655	725.0552	0.97688	-7.5249	-0.45164	-3.1079	0.26856	-9.7966	-0.0592	0.0182	-0.0073	-0.0462	0.0165	0.9585
54.1489	56.2889	758.04	75.9991	-246.1907	-50.385	729.2349	1.7499	-8.4074	-0.00019554	-3.4069	-0.64396	-10.9663	-0.0592	0.0182	-0.0073	-0.0462	0.0165	0.9585
54.1611	59.9047	767.7463	78.4213	-248.6414	-50.9198	733.8893	2.7876	-6.8333	0.77298	-2.7195	-2.0548	-9.0602	-0.0592	0.0182	-0.0073	-0.0462	0.0165	0.9585
54.1734	63.3949	777.175	80.5138	-251.1498	-51.1612	738.15	4.0258	-1.1104	1.9319	-0.37692	-4.0098	-1.942	-0.0592	0.0182	-0.0073	-0.0462	0.0165	0.9585
54.1857	66.7309	785.1248	82.1378	-253.3211	-51.0013	740.9442	5.2985	10.8297	3.5026	4.432	-6.4602	13.0171	-0.0592	0.0182	-0.0073	-0.0462	0.0165	0.9585
54.198	69.8866	790.1354	83.1627	-254.6707	-50.3464	740.992	6.3159	31.1703	5.4185	12.5621	-9.1858	38.5859	-0.0592	0.0182	-0.0073	-0.0462	0.0165	0.9585
54.2103	72.8112	790.5484	83.4196	-254.6486	-49.087	736.8436	6.5703	61.7915	7.4649	24.7346	-11.7	77.1544	-0.0592	0.0182	-0.0073	-0.0462	0.0165	0.9585
54.2226	75.3855	784.5636	82.7079	-252.6624	-47.1065	726.9535	5.3573	103.4878	9.2091	41.2313	-13.1583	129.7239	-0.0592	0.0182	-0.0073	-0.0462	0.0165	0.9585
54.2349	77.4494	770.4177	80.8094	-248.1353	-44.2923	709.8314	1.6591	155.04	10.0083	61.5238	-12.3599	194.7717	-0.0592	0.0182	-0.0073	-0.0462	0.0165	0.9585
54.2471	78.7343	746.5948	77.5124	-240.5729	-40.5697	684.2322	-5.1526	212.257	9.1439	83.9173	-8.1708	267	-0.0592	0.0182	-0.0073	-0.0462	0.0165	0.9585
54.2594	78.9399	712.1072	72.6983	-229.6494	-35.9644	649.3907	-14.2666	268.3633	5.9843	105.7337	-0.24524	337.7752	-0.0592	0.0182	-0.0073	-0.0462	0.0165	0.9585
54.2717	77.761	666.8386	66.4125	-215.3109	-30.6441	605.3279	-23.7508	317.4889	0.79181	124.7043	10.2428	399.4505	-0.0592	0.0182	-0.0073	-0.0462	0.0165	0.9585
54.284	74.9771	611.7608	58.9223	-197.8398	-24.9313	553.0242	-32.4142	358.225	-5.5539	140.2863	21.7154	450.0844	-0.0592	0.0182	-0.0073	-0.0462	0.0165	0.9585
54.2963	70.5293	548.7954	50.6575	-177.8176	-19.2152	494.2629	-39.6529	392.4031	-12.3354	153.216	33.0605	491.8827	-0.0592	0.0182	-0.0073	-0.0462	0.0165	0.9585
54.3086	64.5307	480.5363	42.1143	-156.039	-13.8735	431.4031	-45.33	422.9375	-18.783	164.6705	43.295	528.5444	-0.0592	0.0182	-0.0073	-0.0462	0.0165	0.9585
54.3209	57.2036	409.9316	33.731	-133.4249	-9.1821	367.0472	-49.4521	452.5105	-24.3675	175.7236	51.7982	563.4736	-0.0592	0.0182	-0.0073	-0.0462	0.0165	0.9585
54.3331	48.8464	340.0852	25.8885	-110.9625	-5.341	303.9022	-52.2044	482.7958	-28.795	187.0405	58.3051	598.8229	-0.0592	0.0182	-0.0073	-0.0462	0.0165	0.9585
54.3454	39.9053	273.9574	18.884	-89.6119	-2.4348	244.4897	-53.891	514.4716	-32.1915	198.8713	63.0916	635.5068	-0.0592	0.0182	-0.0073	-0.0462	0.0165	0.9585
54.3577	30.9065	214.0439	12.9415	-70.1933	-0.46255	190.9307	-54.8122	547.5359	-34.9906	211.1705	66.8075	673.5998	-0.0592	0.0182	-0.0073	-0.0462	0.0165	0.9585
54.37	22.4395	162.0383	8.2237	-53.275	0.6497	144.5936	-55.2581	581.3715	-37.7853	223.6438	70.276	712.4335	-0.0592	0.0182	-0.0073	-0.0462	0.0165	0.9585
54.3823	14.9665	118.7023	4.7817	-39.1223	1.0236	106.0734	-55.4907	614.8736	-41.0894	235.8308	74.1981	750.6986	-0.0592	0.0182	-0.0073	-0.0462	0.0165	0.9585
54.3946	8.7728	83.8411	2.5183	-27.6959	0.83978	75.113	-55.7602	646.8877	-45.117	247.274	78.9102	787.0095	-0.0592	0.0182	-0.0073	-0.0462	0.0165	0.9585
54.4069	3.8853	56.6909	1.1884	-18.7673	0.31494	51.0103	-56.1147	676.4594	-49.75	257.6353	84.2916	820.1752	-0.0592	0.0182	-0.0073	-0.0462	0.0165	0.9585
54.4191	0.29185	36.1868	0.52462	-12.0064	-0.33484	32.803	-56.5297	703.0046	-54.615	266.7365	89.8977	849.4653	-0.0592	0.0182	-0.0073	-0.0462	0.0165	0.9585
54.4314	-2.0454	21.2213	0.24259	-7.0635	-0.88617	19.5223	-56.8396	726.0735	-59.3538	274.4588	95.2532	874.2913	-0.0592	0.0182	-0.0073	-0.0462	0.0165	0.9585
54.4437	-3.1798	10.7706	0.14982	-3.6088	-1.198	10.2486	-56.93	745.1731	-63.7027	280.6635	99.9975	894.0728	-0.0592	0.0182	-0.0073	-0.0462	0.0165	0.9585
54.456	-3.2919	3.9359	0.11363	-1.349	-1.2193	4.1818	-56.6128	759.7655	-67.4739	285.1939	103.8415	908.1719	-0.0592	0.0182	-0.0073	-0.0462	0.0165	0.9585
54.4683	-2.8047	-0.053396	0.11018	-0.029281	-1.0668	0.63486	-55.7794	769.473	-70.5315	287.9408	106.5868	916.1735	-0.0592	0.0182	-0.0073	-0.0462	0.0165	0.9585
54.4806	-2.0574	-1.9627	0.12428	0.60062	-0.84326	-1.0685	-54.3467	774.1934	-72.7821	288.9011	108.1021	917.9778	-0.0592	0.0182	-0.0073	-0.0462	0.0165	0.9585
54.4929	-1.2951	-2.4913	0.1591	0.77036	-0.63317	-1.5386	-52.315	774.376	-74.1763	288.265	108.3499	914.1496	-0.0592	0.0182	-0.0073	-0.0462	0.0165	0.9585
54.5051	-0.61606	-2.2178	0.19916	0.66802	-0.45694	-1.3154	-49.7544	770.9737	-74.7331	286.4032	107.4011	905.8268	-0.0592	0.0182	-0.0073	-0.0462	0.0165	0.9585
54.5174	-0.10276	-1.5283	0.24719	0.42711	-0.33757	-0.72877	-46.8034	765.2746	-74.5443	283.8002	105.4337	894.5394	-0.0592	0.0182	-0.0073	-0.0462	0.0165	0.9585
54.5297	0.27123	-0.72397	0.28649	0.14842	-0.25292	-0.065438	-43.6335	758.6699	-73.7368	280.9686	102.6763	881.9356	-0.0592	0.0182	-0.0073	-0.0462	0.0165	0.9585
54.542	0.48715	0.048759	0.31918	-0.11557	-0.20613	0.58371	-40.4312	752.4023	-72.4345	278.3587	99.3568	869.4892	-0.0592	0.0182	-0.0073	-0.0462	0.0165	0.9585
54.5543	0.61722	0.70224	0.3353	-0.33849	-0.17091	1.1248	-37.3826	747.4239	-70.759	276.3045	95.6914	858.3406	-0.0592	0.0182	-0.0073	-0.0462	0.0165	0.9585
54.5666	0.65068	1.2197	0.33694	-0.5154	-0.15047	1.5868	-34.6108	744.2721	-68.8554	274.9786	91.892	849.1212	-0.0592	0.0182	-0.0073	-0.0462	0.0165	0.9585
54.5789	0.6541	1.6042	0.32438	-0.64889	-0.1286	1.9575	-32.1819	743.0662	-66.8853	274.3912	88.161	841.9668	-0.0592	0.0182	-0.0073	-0.0462	0.0165	0.9585
54.5911	0.61917	1.8888	0.30245	-0.74735	-0.10798	2.2852	-30.0675	743.5825	-64.9962	274.4243	84.6421	836.6078	-0.0592	0.0182	-0.0073	-0.0462	0.0165	0.9585
54.6034	0.58332	2.0698	0.27951	-0.80849	-0.086202	2.5295	-28.1575	745.3608	-63.2942	274.8754	81.4037	832.4979	-0.0592	0.0182	-0.0073	-0.0462	0.0165	0.9585
54.6157	0.52855	2.1529	0.26445	-0.8293	-0.07747	2.6877	-26.266	747.7619	-61.8302	275.4861	78.4315	828.9027	-0.0592	0.0182	-0.0073	-0.0462	0.0165	0.9585
54.628	0.4724	2.1108	0.26735	-0.79942	-0.092553	2.7023	-24.1811	750.0478	-60.6057	275.9752	75.6473	824.9977	-0.0592	0.0182	-0.0073	-0.0462	0.0165	0.9585
54.6403	0.40398	1.8935	0.29282	-0.7012	-0.14511	2.4997	-21.6952	751.4992	-59.5967	276.0763	72.9522	819.9999	-0.0592	0.0182	-0.0073	-0.0462	0.0165	0.9585
54.6526	0.32739	1.4249	0.34942	-0.50767	-0.24889	1.978	-18.6302	751.4879	-58.7496	275.5706	70.2309	813.2439	-0.0592	0.0182	-0.0073	-0.0462	0.0165	0.9585
54.6649	0.25446	0.61003	0.43484	-0.18631	-0.39553	1.008	-14.8813	749.6343	-58.0374	274.3316	67.4213	804.3664	-0.0592	0.0182	-0.0073	-0.0462	0.0165	0.9585
54.6771	0.18627	-0.62791	0.55239	0.29049	-0.58235	-0.50966	-10.3805	745.8664	-57.4365	272.3504	64.4855	793.3287	-0.0592	0.0182	-0.0073	-0.0462	0.0165	0.9585
54.6894	0.16482	-2.3306	0.68515	0.93889	-0.77413	-2.6387	-5.1832	740.5124	-56.941	269.7672	61.4389	780.5459	-0.0592	0.0182	-0.0073	-0.0462	0.0165	0.9585
54.7017	0.21239	-4.4479	0.80705	1.74	-0.92652	-5.2871	0.62093	734.3091	-56.556	266.8725	58.323	766.8517	-0.0592	0.0182	-0.0073	-0.0462	0.0165	0.9585
54.714	0.40485	-6.7979	0.86506	2.6189	-0.94132	-8.2381	6.827	728.3248	-56.311	264.0724	55.2358	753.4305	-0.0592	0.0182	-0.0073	-0.0462	0.0165	0.9585
54.7263	0.79117	-8.9507	0.79307	3.4128	-0.70915	-10.9429	13.1773	723.7405	-56.2493	261.8091	52.305	741.5601	-0.0592	0.0182	-0.0073	-0.0462	0.0165	0.9585
